<?xml version="1.0" encoding="iso-8859-1"?>
<!-- Generator: Adobe Illustrator 16.0.0, SVG Export Plug-In . SVG Version: 6.00 Build 0)  -->
<!DOCTYPE svg PUBLIC "-//W3C//DTD SVG 1.1//EN" "http://www.w3.org/Graphics/SVG/1.1/DTD/svg11.dtd">
<svg version="1.1" xmlns="http://www.w3.org/2000/svg" xmlns:xlink="http://www.w3.org/1999/xlink" x="0px" y="0px" width="43px"
	 height="43px" viewBox="0 0 43 43" style="enable-background:new 0 0 43 43;" xml:space="preserve">
<g id="Capa_1">
	<g>
		<path id="XMLID_41_" style="fill:#559680;" d="M21.505,37.252L21.505,37.252c-8.702,0-15.758-7.049-15.758-15.748l0,0
			c0-8.71,7.056-15.756,15.758-15.756l0,0c8.691,0,15.748,7.046,15.748,15.756l0,0C37.253,30.203,30.196,37.252,21.505,37.252z"/>
		<g id="XMLID_36_">
			<path id="XMLID_38_" style="fill-rule:evenodd;clip-rule:evenodd;fill:#FFFFFF;" d="M30.148,21.071
				c-0.119-4.559-3.873-8.219-8.487-8.219c-4.561,0-8.277,3.571-8.487,8.065c0,0.107,0,0.229,0,0.36
				c0,1.597,0.446,3.081,1.215,4.346l-1.527,4.512l4.695-1.484c1.226,0.662,2.614,1.044,4.104,1.044c4.69,0,8.487-3.76,8.487-8.417
				C30.148,21.208,30.148,21.128,30.148,21.071z M21.661,28.364c-1.447,0-2.786-0.434-3.916-1.176l-2.748,0.866l0.882-2.633
				c-0.855-1.172-1.35-2.601-1.35-4.144c0-0.242,0.011-0.471,0.032-0.681c0.35-3.593,3.399-6.4,7.1-6.4
				c3.743,0,6.825,2.88,7.104,6.529c0.027,0.191,0.032,0.363,0.032,0.552C28.798,25.183,25.588,28.364,21.661,28.364z"/>
			<path id="XMLID_37_" style="fill-rule:evenodd;clip-rule:evenodd;fill:#FFFFFF;" d="M25.539,22.975
				c-0.188-0.1-1.216-0.603-1.42-0.661c-0.184-0.07-0.328-0.113-0.463,0.097c-0.14,0.202-0.537,0.675-0.661,0.796
				c-0.118,0.15-0.237,0.172-0.458,0.06c-0.193-0.103-0.876-0.32-1.667-1.022c-0.608-0.543-1.033-1.218-1.151-1.436
				c-0.124-0.202,0-0.313,0.091-0.414c0.091-0.086,0.205-0.239,0.307-0.368c0.032-0.03,0.054-0.063,0.086-0.089
				c0.048-0.07,0.064-0.151,0.129-0.25c0.07-0.146,0.032-0.253-0.016-0.355c-0.054-0.107-0.479-1.124-0.646-1.535
				c-0.172-0.42-0.354-0.35-0.468-0.35c-0.124,0-0.253-0.021-0.393-0.021c-0.145,0-0.371,0.059-0.564,0.264
				c-0.194,0.22-0.726,0.701-0.726,1.726c0,0.239,0.043,0.481,0.118,0.71c0.209,0.713,0.656,1.326,0.731,1.426
				c0.107,0.129,1.441,2.277,3.555,3.119c2.113,0.817,2.113,0.543,2.495,0.514c0.377-0.04,1.232-0.5,1.414-0.992
				c0.162-0.474,0.162-0.893,0.113-0.984C25.899,23.137,25.743,23.085,25.539,22.975z"/>
		</g>
	</g>
</g>
<g id="Capa_9">
</g>
<g id="Modo_de_aislamiento">
</g>
</svg>
