<?xml version="1.0" encoding="iso-8859-1"?>
<!-- Generator: Adobe Illustrator 16.0.0, SVG Export Plug-In . SVG Version: 6.00 Build 0)  -->
<!DOCTYPE svg PUBLIC "-//W3C//DTD SVG 1.1//EN" "http://www.w3.org/Graphics/SVG/1.1/DTD/svg11.dtd">
<svg version="1.1" xmlns="http://www.w3.org/2000/svg" xmlns:xlink="http://www.w3.org/1999/xlink" x="0px" y="0px" width="1280px"
	 height="720.001px" viewBox="0 0 1280 720.001" style="enable-background:new 0 0 1280 720.001;" xml:space="preserve">
<g id="Capa_1">
</g>
<g id="Capa_2">
</g>
<g id="Capa_2_copia">
</g>
<g id="Capa_2_copia_2">
	<g id="textura">
	</g>
</g>
<g id="DORADO">
</g>
<g id="paleta">
</g>
<g id="ID" style="display:none;">
</g>
<g id="Capa_9">
	<g>
		<g>
			<path style="fill:#F6F6F6;" d="M417.473,236.29c-0.23-0.01-0.41-0.02-0.531-0.029
				C417.063,236.261,417.242,236.271,417.473,236.29z"/>
		</g>
		<g>
			<path style="fill:#F6F6F6;" d="M863.242,236.251c-145.07,31.309-223.24,99.029-223.24,99.029s-78.17-67.721-223.24-99.029
				c0,0,0.061,0,0.18,0.01c0.121,0.01,0.301,0.02,0.531,0.029c0.24,0.01,0.529,0.029,0.879,0.051
				c13.83,0.83,115.861,8.689,221.311,64.16c0.109-0.051,0.23-0.131,0.34-0.191c0.1,0.061,0.24,0.141,0.34,0.191
				c105.451-55.471,207.48-63.33,221.311-64.16C862.703,236.28,863.242,236.251,863.242,236.251z"/>
		</g>
		<g>
			<path style="fill:#F6F6F6;" d="M695.713,209.659c0.107-4.432,2.361-12.115-1.547-15.473c-5.271-4.535-11.775,8.104-14.633,11.199
				c-0.865,0.941-4.508,5.926-5.635,4.824c-2.703-2.648-5.352-5.402-7.789-8.262c-2.781-3.223-4.59-8.389-9.572-7.943
				c-3.33,0.287-2.936,2.412-5.01,4.09c-0.604,0.51-4.158-9.266-4.887-11.416c0.363-0.15,0.912-0.393,1.65-0.758
				c0.65-0.342,1.48-0.691,2.365-1.215c0.887-0.531,1.936-1.025,2.98-1.813c1.041-0.775,2.213-1.883,3.1-2.41
				c1.055-0.58,2.5-0.961,3.928-1.252c2.914-0.508,6.182-0.611,9.178,0.096c1.559,0.342,2.781,0.867,4.17,1.783
				c1.404,0.852,2.781,1.688,4.117,2.5c1.342,0.84,2.762,1.514,4.104,2.139c1.398,0.512,2.693,1.084,3.994,1.262
				c0.641,0.123,1.25,0.242,1.828,0.352c0.59,0.014,1.148,0.023,1.676,0.033c0.521,0.008,1.01,0.016,1.459,0.023
				c0.445-0.041,0.855-0.119,1.225-0.166c1.471-0.227,2.279-0.391,2.279-0.391s-0.85-0.066-2.295-0.119
				c-0.363-0.016-0.764-0.012-1.193-0.049c-0.424-0.082-0.885-0.172-1.377-0.27c-0.482-0.094-1-0.197-1.543-0.305
				c-0.521-0.176-1.074-0.363-1.648-0.559c-1.162-0.313-2.305-1.008-3.549-1.572c-1.203-0.707-2.453-1.463-3.729-2.332
				c-1.291-0.836-2.623-1.852-4.012-2.697c-1.326-0.936-3.189-1.82-4.9-2.184c-3.529-0.764-7.084-0.58-10.279,0.207
				c-1.604,0.41-3.1,0.932-4.492,1.861c-1.443,1.129-2.115,2.057-2.986,2.889c-0.871,0.822-1.813,1.498-2.57,2.162
				c-0.768,0.66-1.512,1.141-2.09,1.588c-0.641,0.479-1.111,0.832-1.43,1.066c-0.035-0.115-0.066-0.207-0.082-0.256
				c-1.152-3.828-1.127-11.014-6.555-11.014c-5.189,0-5.395,6.553-6.408,10.477c-0.123-0.092-0.23-0.172-0.369-0.273
				c-0.578-0.447-1.32-0.928-2.088-1.588c-0.754-0.664-1.695-1.34-2.566-2.162c-0.877-0.832-1.543-1.76-2.986-2.889
				c-1.393-0.93-2.889-1.451-4.496-1.861c-3.191-0.787-6.746-0.971-10.275-0.207c-1.711,0.363-3.574,1.248-4.9,2.184
				c-1.395,0.846-2.725,1.861-4.012,2.697c-1.279,0.869-2.529,1.625-3.729,2.332c-1.25,0.564-2.391,1.26-3.555,1.572
				c-0.572,0.195-1.121,0.383-1.643,0.559c-0.549,0.107-1.061,0.211-1.547,0.305c-0.492,0.098-0.953,0.188-1.379,0.27
				c-0.43,0.037-0.83,0.033-1.188,0.049c-1.445,0.053-2.301,0.119-2.301,0.119s0.814,0.164,2.285,0.391
				c0.369,0.047,0.779,0.125,1.225,0.166c0.451-0.008,0.938-0.016,1.453-0.023c0.529-0.01,1.086-0.02,1.682-0.033
				c0.578-0.109,1.188-0.229,1.822-0.352c1.307-0.178,2.598-0.75,4-1.262c1.342-0.625,2.756-1.299,4.104-2.139
				c1.336-0.813,2.715-1.648,4.117-2.5c1.383-0.916,2.611-1.441,4.17-1.783c2.996-0.707,6.258-0.604,9.172-0.096
				c1.434,0.291,2.879,0.672,3.934,1.252c0.887,0.527,2.059,1.635,3.1,2.41c1.039,0.787,2.094,1.281,2.98,1.813
				c0.885,0.523,1.715,0.873,2.365,1.215c0.189,0.094,0.344,0.166,0.514,0.246c-0.012,0.041-0.021,0.086-0.037,0.127
				c-0.234,0.84-4.354,12.352-5.008,11.801c-2.674-2.176-2.096-4.59-6.582-4.09c-4.195,0.471-7.631,7.604-10.33,10.566
				c-0.498,0.525-5.717,6.346-6.086,5.98c-2.99-2.938-5.873-5.953-8.547-9.154c-2.465-2.963-4.691-9.072-9.439-8.049
				c-3.807,0.838-3.725,5.402-3.539,8.365c0.496,7.682,0.629,15.418-0.133,23.076c-0.236,2.57-2.203,6.449,0.732,6.975
				c2.387,0.445,4.799,0.814,7.211,1.156c33.434,4.563,69.938,5.27,103.27-1.076c0.68-0.105,1.387-0.236,2.176-0.395
				C695.744,224.317,695.559,216.923,695.713,209.659z M694.586,228.462c-0.445,0.785-2.936,1.547-6.92,2.176
				c-9.285,1.521-26.879,2.543-47.049,2.543c-29.863,0-54.096-2.227-54.096-5.008c0-2.779,24.232-5.035,54.096-5.035
				c29.871,0,54.076,2.256,54.076,5.035C694.693,228.276,694.668,228.356,694.586,228.462z"/>
		</g>
		<g>
			<g>
				<path style="fill:#F6F6F6;" d="M419.705,404.625c-1.15,0.878-2.389,1.638-3.715,2.281s-2.777,1.132-4.357,1.463
					c-1.578,0.33-3.324,0.497-5.234,0.497c-3.004,0-5.771-0.547-8.305-1.638c-2.535-1.092-4.729-2.583-6.58-4.475
					c-1.854-1.891-3.305-4.124-4.357-6.697s-1.58-5.342-1.58-8.306c0-2.924,0.516-5.673,1.551-8.246
					c1.031-2.574,2.484-4.826,4.357-6.756c1.871-1.931,4.094-3.451,6.668-4.563c2.572-1.111,5.418-1.667,8.539-1.667
					c1.871,0,3.576,0.156,5.117,0.469c1.539,0.313,2.953,0.751,4.24,1.315c1.287,0.565,2.477,1.238,3.568,2.018
					c1.092,0.781,2.125,1.638,3.1,2.574l-4.621,5.322c-1.637-1.521-3.373-2.749-5.205-3.685c-1.834-0.937-3.918-1.404-6.258-1.404
					c-1.951,0-3.754,0.381-5.41,1.141c-1.658,0.761-3.092,1.794-4.299,3.1c-1.209,1.308-2.146,2.837-2.809,4.592
					s-0.994,3.646-0.994,5.674s0.332,3.929,0.994,5.702c0.662,1.775,1.6,3.325,2.809,4.65c1.207,1.326,2.641,2.368,4.299,3.129
					c1.656,0.761,3.459,1.141,5.41,1.141c2.494,0,4.639-0.478,6.434-1.434c1.793-0.954,3.568-2.251,5.322-3.889l4.621,4.679
					C421.957,402.745,420.854,403.748,419.705,404.625z"/>
			</g>
			<g>
				<path style="fill:#F6F6F6;" d="M430.553,367.222h7.137v34.45h21.523v6.492h-28.66V367.222z"/>
			</g>
			<g>
				<path style="fill:#F6F6F6;" d="M474.303,367.222v40.942h-7.135v-40.942H474.303z M467.869,363.829l6.199-9.592l6.434,2.866
					l-7.135,6.726H467.869z"/>
			</g>
			<g>
				<path style="fill:#F6F6F6;" d="M513.84,367.222h7.137v40.942h-6.014l-22.529-29.128v29.128h-7.137v-40.942h6.654l21.889,28.309
					V367.222z"/>
			</g>
			<g>
				<path style="fill:#F6F6F6;" d="M539.049,367.222v40.942h-7.135v-40.942H539.049z"/>
			</g>
			<g>
				<path style="fill:#F6F6F6;" d="M582.359,404.625c-1.15,0.878-2.389,1.638-3.715,2.281s-2.777,1.132-4.357,1.463
					c-1.578,0.33-3.324,0.497-5.234,0.497c-3.004,0-5.771-0.547-8.305-1.638c-2.535-1.092-4.729-2.583-6.58-4.475
					c-1.854-1.891-3.305-4.124-4.357-6.697s-1.58-5.342-1.58-8.306c0-2.924,0.516-5.673,1.551-8.246
					c1.031-2.574,2.484-4.826,4.357-6.756c1.871-1.931,4.094-3.451,6.668-4.563c2.572-1.111,5.418-1.667,8.539-1.667
					c1.871,0,3.576,0.156,5.117,0.469c1.539,0.313,2.953,0.751,4.24,1.315c1.287,0.565,2.477,1.238,3.568,2.018
					c1.092,0.781,2.125,1.638,3.1,2.574l-4.621,5.322c-1.637-1.521-3.373-2.749-5.205-3.685c-1.834-0.937-3.918-1.404-6.258-1.404
					c-1.951,0-3.754,0.381-5.41,1.141c-1.658,0.761-3.092,1.794-4.299,3.1c-1.209,1.308-2.146,2.837-2.809,4.592
					s-0.994,3.646-0.994,5.674s0.332,3.929,0.994,5.702c0.662,1.775,1.6,3.325,2.809,4.65c1.207,1.326,2.641,2.368,4.299,3.129
					c1.656,0.761,3.459,1.141,5.41,1.141c2.494,0,4.639-0.478,6.434-1.434c1.793-0.954,3.568-2.251,5.322-3.889l4.621,4.679
					C584.611,402.745,583.508,403.748,582.359,404.625z"/>
			</g>
			<g>
				<path style="fill:#F6F6F6;" d="M632.396,408.164h-7.604l-4.152-9.885h-19.359l-4.213,9.885h-7.369l18.016-41.234h6.668
					L632.396,408.164z M610.932,375.527l-7.02,16.377h14.096L610.932,375.527z"/>
			</g>
			<g>
				<path style="fill:#F6F6F6;" d="M692.404,395.735c-1.053,2.515-2.543,4.689-4.473,6.521c-1.932,1.833-4.232,3.275-6.902,4.328
					c-2.672,1.053-5.605,1.579-8.803,1.579h-15.266v-40.942h15.266c3.197,0,6.131,0.518,8.803,1.55
					c2.67,1.034,4.971,2.467,6.902,4.299c1.93,1.834,3.42,3.998,4.473,6.492c1.053,2.496,1.58,5.187,1.58,8.072
					S693.457,393.22,692.404,395.735z M685.412,382.143c-0.684-1.703-1.641-3.181-2.873-4.434c-1.23-1.253-2.727-2.232-4.486-2.938
					s-3.715-1.058-5.863-1.058h-8.094v27.958h8.094c2.148,0,4.104-0.342,5.863-1.027s3.256-1.645,4.486-2.878
					c1.232-1.233,2.189-2.702,2.873-4.405c0.684-1.704,1.027-3.574,1.027-5.61S686.096,383.847,685.412,382.143z"/>
			</g>
			<g>
				<path style="fill:#F6F6F6;" d="M732.996,373.714h-23.162v10.528h20.531v6.492h-20.531v10.938h23.455v6.492h-30.59v-40.942
					h30.297V373.714z"/>
			</g>
			<g>
				<path style="fill:#F6F6F6;" d="M770.43,367.222h7.135v40.942h-6.012l-22.531-29.128v29.128h-7.135v-40.942h6.654l21.889,28.309
					V367.222z"/>
			</g>
			<g>
				<path style="fill:#F6F6F6;" d="M805.406,408.164h-7.254V373.89h-12.984v-6.668h33.223v6.668h-12.984V408.164z"/>
			</g>
			<g>
				<path style="fill:#F6F6F6;" d="M859.916,408.164h-7.604l-4.152-9.885h-19.359l-4.211,9.885h-7.369l18.014-41.234h6.668
					L859.916,408.164z M838.451,375.527l-7.018,16.377h14.096L838.451,375.527z"/>
			</g>
			<g>
				<path style="fill:#F6F6F6;" d="M866.934,367.222h7.137v34.45h21.523v6.492h-28.66V367.222z"/>
			</g>
		</g>
		<g>
			<g>
				<path style="fill:#F6F6F6;" d="M519.833,480.96c-1.509,1.15-3.132,2.147-4.87,2.991c-1.738,0.843-3.643,1.483-5.713,1.917
					s-4.359,0.651-6.863,0.651c-3.938,0-7.568-0.716-10.89-2.146c-3.324-1.431-6.199-3.387-8.627-5.867
					c-2.429-2.479-4.333-5.406-5.714-8.78c-1.38-3.374-2.07-7.004-2.07-10.89c0-3.834,0.677-7.438,2.032-10.813
					c1.354-3.375,3.26-6.327,5.713-8.857c2.454-2.531,5.368-4.525,8.743-5.982c3.373-1.457,7.105-2.186,11.196-2.186
					c2.453,0,4.689,0.205,6.71,0.614c2.019,0.409,3.871,0.984,5.56,1.726c1.688,0.741,3.245,1.623,4.677,2.646
					c1.432,1.023,2.787,2.146,4.065,3.374l-6.059,6.979c-2.146-1.994-4.423-3.604-6.825-4.831c-2.403-1.228-5.138-1.841-8.205-1.841
					c-2.557,0-4.921,0.498-7.094,1.495c-2.174,0.997-4.052,2.353-5.637,4.064c-1.585,1.714-2.813,3.72-3.681,6.021
					c-0.87,2.301-1.304,4.78-1.304,7.438c0,2.659,0.434,5.151,1.304,7.477c0.868,2.327,2.096,4.359,3.681,6.097
					c1.585,1.739,3.463,3.106,5.637,4.103c2.173,0.997,4.537,1.496,7.094,1.496c3.271,0,6.083-0.626,8.436-1.879
					c2.351-1.252,4.678-2.953,6.979-5.1l6.059,6.135C522.785,478.494,521.34,479.81,519.833,480.96z"/>
			</g>
			<g>
				<path style="fill:#F6F6F6;" d="M573.782,440.431h-30.368v13.804h26.917v8.513h-26.917v14.34h30.751v8.513h-40.107v-53.681
					h39.725V440.431z"/>
			</g>
			<g>
				<path style="fill:#F6F6F6;" d="M622.861,431.919h9.355V485.6h-7.883l-29.54-38.19v38.19h-9.356v-53.681h8.725l28.699,37.116
					V431.919z"/>
			</g>
			<g>
				<path style="fill:#F6F6F6;" d="M668.719,485.6h-9.509v-44.938h-17.024v-8.742h43.559v8.742h-17.025V485.6z"/>
			</g>
			<g>
				<path style="fill:#F6F6F6;" d="M730.146,485.6l-13.23-18.712h-11.847V485.6h-9.355v-53.681h23.927
					c3.067,0,5.84,0.396,8.32,1.188c2.479,0.793,4.575,1.917,6.289,3.374c1.712,1.457,3.028,3.247,3.949,5.368
					c0.92,2.122,1.38,4.486,1.38,7.094c0,2.25-0.319,4.256-0.959,6.02s-1.521,3.324-2.646,4.678
					c-1.125,1.355-2.467,2.506-4.026,3.451c-1.56,0.947-3.285,1.676-5.176,2.186l14.494,20.322H730.146z M727.068,442.703
					c-1.949-1.515-4.691-2.272-8.23-2.272h-13.77v18.099h13.848c3.384,0,6.076-0.821,8.076-2.464s3-3.851,3-6.624
					C729.992,446.464,729.017,444.218,727.068,442.703z"/>
			</g>
			<g>
				<path style="fill:#F6F6F6;" d="M802.844,469.419c-1.38,3.374-3.324,6.326-5.828,8.857c-2.506,2.53-5.472,4.537-8.896,6.02
					s-7.208,2.224-11.349,2.224c-4.142,0-7.926-0.729-11.35-2.186c-3.426-1.457-6.365-3.438-8.819-5.943
					c-2.454-2.504-4.371-5.444-5.752-8.818s-2.07-6.952-2.07-10.736c0-3.783,0.689-7.362,2.07-10.736s3.323-6.326,5.828-8.857
					c2.504-2.53,5.471-4.536,8.896-6.02c3.424-1.482,7.208-2.225,11.35-2.225c4.141,0,7.924,0.729,11.35,2.186
					c3.425,1.457,6.365,3.439,8.818,5.943c2.454,2.506,4.372,5.445,5.752,8.819c1.381,3.374,2.07,6.953,2.07,10.736
					C804.914,462.467,804.225,466.044,802.844,469.419z M793.68,451.436c-0.896-2.326-2.148-4.358-3.758-6.097
					c-1.61-1.737-3.541-3.118-5.79-4.141c-2.251-1.022-4.704-1.534-7.361-1.534c-2.659,0-5.1,0.498-7.324,1.495
					c-2.224,0.997-4.129,2.353-5.713,4.064c-1.585,1.714-2.825,3.732-3.72,6.059c-0.895,2.327-1.342,4.793-1.342,7.4
					s0.447,5.074,1.342,7.4c0.895,2.327,2.147,4.359,3.758,6.097c1.609,1.738,3.54,3.119,5.79,4.141
					c2.249,1.023,4.703,1.534,7.362,1.534c2.657,0,5.1-0.499,7.323-1.496c2.224-0.996,4.128-2.351,5.713-4.064
					c1.584-1.712,2.823-3.73,3.72-6.058c0.894-2.326,1.342-4.793,1.342-7.4S794.573,453.763,793.68,451.436z"/>
			</g>
		</g>
		<g>
			<g>
				<path style="fill:#F6F6F6;" d="M596.991,518.306c0.19,0.405,0.535,0.785,1.038,1.136c0.501,0.353,1.192,0.677,2.074,0.974
					c0.881,0.299,2,0.609,3.356,0.934c1.491,0.379,2.813,0.798,3.966,1.258s2.108,1.021,2.867,1.684
					c0.76,0.663,1.336,1.435,1.729,2.313c0.393,0.879,0.59,1.914,0.59,3.104c0,1.354-0.248,2.557-0.745,3.611
					c-0.496,1.055-1.187,1.947-2.072,2.678c-0.885,0.73-1.948,1.285-3.19,1.664c-1.243,0.378-2.607,0.567-4.095,0.567
					c-2.191,0-4.288-0.372-6.291-1.115c-2.002-0.744-3.854-1.887-5.558-3.429l3.003-3.57c1.379,1.19,2.771,2.104,4.179,2.738
					c1.406,0.636,3.003,0.954,4.788,0.954c1.542,0,2.766-0.325,3.672-0.975c0.906-0.648,1.359-1.527,1.359-2.637
					c0-0.514-0.088-0.974-0.264-1.38c-0.177-0.405-0.503-0.777-0.977-1.116c-0.475-0.338-1.126-0.655-1.953-0.953
					c-0.827-0.297-1.905-0.608-3.234-0.934c-1.519-0.351-2.867-0.743-4.047-1.176s-2.17-0.975-2.971-1.623
					c-0.799-0.649-1.409-1.434-1.83-2.354c-0.42-0.92-0.63-2.042-0.63-3.368c0-1.244,0.241-2.374,0.724-3.388
					c0.483-1.015,1.147-1.887,1.992-2.617c0.846-0.73,1.861-1.292,3.05-1.684c1.188-0.393,2.484-0.589,3.892-0.589
					c2.082,0,3.955,0.305,5.619,0.913s3.226,1.495,4.686,2.657l-2.676,3.773c-1.3-0.946-2.585-1.67-3.855-2.17
					c-1.272-0.501-2.557-0.751-3.854-0.751c-1.461,0-2.599,0.331-3.409,0.994c-0.812,0.663-1.217,1.468-1.217,2.414
					C596.707,517.413,596.801,517.899,596.991,518.306z"/>
				<path style="fill:#FFFFFF;" d="M602.51,539.228c-2.299,0-4.533-0.396-6.639-1.178c-2.111-0.785-4.09-2.004-5.881-3.625
					l-0.715-0.646l4.275-5.084l0.767,0.662c1.301,1.123,2.625,1.992,3.937,2.584c1.271,0.574,2.743,0.865,4.377,0.865
					c1.32,0,2.36-0.265,3.09-0.787c0.643-0.46,0.941-1.04,0.941-1.824c0-0.374-0.062-0.704-0.182-0.982
					c-0.102-0.232-0.317-0.469-0.641-0.7c-0.395-0.281-0.971-0.56-1.71-0.826c-0.792-0.284-1.847-0.588-3.133-0.902
					c-1.534-0.354-2.936-0.762-4.154-1.209c-1.276-0.468-2.37-1.067-3.255-1.784c-0.918-0.746-1.628-1.659-2.11-2.715
					c-0.479-1.048-0.721-2.32-0.721-3.784c0-1.389,0.276-2.673,0.82-3.817c0.541-1.136,1.295-2.126,2.241-2.944
					c0.944-0.814,2.084-1.446,3.392-1.877c1.282-0.424,2.697-0.639,4.204-0.639c2.188,0,4.195,0.328,5.963,0.974
					c1.754,0.642,3.424,1.589,4.965,2.814l0.74,0.589l-3.809,5.371l-0.819-0.596c-1.226-0.893-2.448-1.582-3.633-2.048
					c-1.148-0.452-2.322-0.682-3.488-0.682c-1.219,0-2.153,0.259-2.776,0.769c-0.58,0.474-0.85,0.994-0.85,1.64
					c0,0.419,0.063,0.768,0.189,1.036c0.115,0.245,0.353,0.495,0.705,0.74c0.422,0.297,1.033,0.581,1.821,0.847
					c0.843,0.285,1.941,0.591,3.27,0.908c1.542,0.393,2.92,0.829,4.104,1.302c1.252,0.5,2.313,1.125,3.153,1.858
					c0.864,0.756,1.532,1.65,1.985,2.659c0.449,1.006,0.677,2.188,0.677,3.512c0,1.496-0.283,2.854-0.841,4.038
					c-0.557,1.184-1.345,2.201-2.34,3.022c-0.982,0.812-2.172,1.434-3.535,1.849C605.563,539.022,604.087,539.228,602.51,539.228z
					 M592.063,533.569c1.401,1.14,2.912,2.015,4.503,2.605c1.883,0.698,3.883,1.053,5.943,1.053c1.38,0,2.66-0.177,3.804-0.524
					c1.109-0.338,2.066-0.836,2.845-1.479c0.767-0.632,1.373-1.416,1.804-2.332c0.432-0.915,0.65-1.987,0.65-3.186
					c0-1.042-0.169-1.948-0.503-2.695c-0.332-0.742-0.828-1.404-1.475-1.968c-0.67-0.585-1.538-1.093-2.58-1.509
					c-1.104-0.44-2.396-0.851-3.841-1.218c-1.394-0.332-2.521-0.646-3.432-0.955c-0.981-0.331-1.744-0.691-2.328-1.104
					c-0.64-0.445-1.103-0.961-1.368-1.528c-0.252-0.536-0.379-1.171-0.379-1.886c0-1.257,0.533-2.329,1.584-3.188
					c0.989-0.81,2.35-1.22,4.042-1.22c1.419,0,2.838,0.276,4.221,0.82c1.069,0.421,2.158,0.996,3.246,1.715l1.541-2.173
					c-1.155-0.819-2.38-1.468-3.651-1.933c-1.547-0.565-3.322-0.853-5.275-0.853c-1.295,0-2.496,0.181-3.578,0.538
					c-1.056,0.348-1.967,0.85-2.709,1.491c-0.736,0.636-1.322,1.406-1.744,2.29c-0.415,0.874-0.626,1.869-0.626,2.958
					c0,1.175,0.182,2.169,0.54,2.953c0.358,0.783,0.865,1.436,1.551,1.992c0.712,0.577,1.615,1.068,2.684,1.461
					c1.142,0.418,2.463,0.802,3.928,1.14c1.367,0.335,2.488,0.659,3.348,0.967c0.924,0.333,1.643,0.687,2.195,1.08
					c0.623,0.445,1.064,0.96,1.313,1.531c0.231,0.533,0.348,1.131,0.348,1.779c0,1.425-0.614,2.618-1.777,3.45
					c-1.075,0.771-2.507,1.161-4.254,1.161c-1.92,0-3.669-0.351-5.2-1.043c-1.22-0.55-2.44-1.305-3.638-2.248L592.063,533.569z"/>
			</g>
			<g>
				<path style="fill:#F6F6F6;" d="M617.602,537.822v-5.559h5.397v5.559H617.602z"/>
				<path style="fill:#FFFFFF;" d="M623.999,538.822h-7.397v-7.559h7.397V538.822z M618.602,536.822h3.397v-3.559h-3.397V536.822z"
					/>
			</g>
			<g>
				<path style="fill:#F6F6F6;" d="M647.629,537.822l-7.001-9.9h-6.268v9.9h-4.95V509.42h12.66c1.623,0,3.09,0.209,4.402,0.629
					c1.311,0.419,2.421,1.014,3.327,1.785c0.906,0.771,1.603,1.718,2.09,2.84c0.487,1.123,0.729,2.374,0.729,3.753
					c0,1.191-0.169,2.252-0.507,3.186s-0.805,1.759-1.399,2.476c-0.596,0.717-1.306,1.325-2.131,1.825
					c-0.825,0.501-1.738,0.887-2.738,1.156l7.669,10.753H647.629z M646.002,515.125c-1.033-0.801-2.484-1.201-4.356-1.201h-7.285
					v9.575h7.327c1.79,0,3.215-0.435,4.272-1.304s1.588-2.037,1.588-3.504C647.548,517.115,647.031,515.927,646.002,515.125z"/>
				<path style="fill:#FFFFFF;" d="M655.454,538.822h-8.343l-7.001-9.9h-4.75v9.9h-6.95V508.42h13.66
					c1.721,0,3.304,0.228,4.707,0.677c1.434,0.458,2.669,1.123,3.67,1.976c1.018,0.866,1.813,1.943,2.359,3.203
					c0.539,1.242,0.813,2.639,0.813,4.151c0,1.301-0.19,2.487-0.566,3.525s-0.904,1.971-1.57,2.774
					c-0.665,0.8-1.466,1.486-2.382,2.042c-0.52,0.314-1.073,0.59-1.657,0.822L655.454,538.822z M648.146,536.822h3.425
					l-7.377-10.344l1.39-0.375c0.903-0.243,1.737-0.595,2.479-1.045c0.726-0.44,1.358-0.981,1.88-1.609
					c0.519-0.625,0.932-1.357,1.229-2.177c0.297-0.82,0.447-1.777,0.447-2.846c0-1.237-0.218-2.365-0.646-3.354
					c-0.425-0.977-1.037-1.811-1.82-2.477c-0.801-0.681-1.804-1.217-2.984-1.595c-1.206-0.386-2.584-0.581-4.098-0.581h-11.66
					v26.402h2.95v-9.9h7.785L648.146,536.822z M641.688,524.499h-8.327v-11.575h8.285c2.089,0,3.761,0.475,4.969,1.411
					c1.284,0.999,1.934,2.465,1.934,4.356c0,1.772-0.657,3.212-1.953,4.276C645.358,523.983,643.707,524.499,641.688,524.499z
					 M635.36,522.499h6.327c1.545,0,2.769-0.362,3.638-1.076c0.822-0.677,1.223-1.569,1.223-2.731c0-1.261-0.38-2.169-1.16-2.777
					c-0.848-0.656-2.106-0.99-3.742-0.99h-6.285V522.499z"/>
			</g>
			<g>
				<path style="fill:#F6F6F6;" d="M657.854,537.822v-5.559h5.396v5.559H657.854z"/>
				<path style="fill:#FFFFFF;" d="M664.25,538.822h-7.396v-7.559h7.396V538.822z M658.854,536.822h3.396v-3.559h-3.396V536.822z"/>
			</g>
			<g>
				<path style="fill:#F6F6F6;" d="M669.66,509.42h4.95v23.898h14.933v4.504H669.66V509.42z"/>
				<path style="fill:#FFFFFF;" d="M690.543,538.822H668.66V508.42h6.95v23.898h14.933V538.822z M670.66,536.822h17.883v-2.504
					H673.61V510.42h-2.95V536.822z"/>
			</g>
		</g>
	</g>
</g>
<g id="Capa_11" style="display:none;">
</g>
</svg>
