<?xml version="1.0" encoding="iso-8859-1"?>
<!-- Generator: Adobe Illustrator 16.0.0, SVG Export Plug-In . SVG Version: 6.00 Build 0)  -->
<!DOCTYPE svg PUBLIC "-//W3C//DTD SVG 1.1//EN" "http://www.w3.org/Graphics/SVG/1.1/DTD/svg11.dtd">
<svg version="1.1" xmlns="http://www.w3.org/2000/svg" xmlns:xlink="http://www.w3.org/1999/xlink" x="0px" y="0px" width="204px"
	 height="44px" viewBox="0 0 204 44" style="enable-background:new 0 0 204 44;" xml:space="preserve">
<g id="Capa_1">
</g>
<g id="Capa_9">
</g>
<g id="Modo_de_aislamiento">
	<g>
		<g>
			<path d="M15.948,23.222c-4.28,0-6.899-2.392-6.899-7.082V7.03h3.507v9.018c0,2.597,1.299,3.94,3.439,3.94
				s3.438-1.299,3.438-3.826V7.03h3.506v8.995C22.939,20.854,20.229,23.222,15.948,23.222z"/>
			<path d="M36.193,22.971l-3.415-5.101h-2.756v5.101h-3.507V7.03h7.287c3.757,0,6.012,1.981,6.012,5.261v0.046
				c0,2.572-1.39,4.189-3.416,4.941l3.894,5.692H36.193z M36.262,12.473c0-1.502-1.047-2.276-2.755-2.276h-3.484v4.577h3.552
				c1.709,0,2.688-0.911,2.688-2.255V12.473z"/>
			<path d="M50.654,23.244c-4.964,0-8.38-3.484-8.38-8.197v-0.046c0-4.532,3.529-8.244,8.357-8.244c2.869,0,4.6,0.774,6.263,2.187
				l-2.21,2.664c-1.229-1.024-2.322-1.616-4.167-1.616c-2.551,0-4.577,2.254-4.577,4.964v0.046c0,2.914,2.004,5.055,4.828,5.055
				c1.275,0,2.414-0.318,3.302-0.956v-2.277h-3.529v-3.028h6.923v6.923C55.824,22.105,53.569,23.244,50.654,23.244z"/>
			<path d="M60.834,22.971V7.03h12.023v3.12h-8.539v3.233h7.515v3.12h-7.515v3.348h8.653v3.119H60.834z"/>
			<path d="M87.273,22.971l-7.721-10.134v10.134h-3.461V7.03h3.233l7.47,9.815V7.03h3.462v15.94H87.273z"/>
			<path d="M101.552,23.244c-4.691,0-8.176-3.62-8.176-8.197v-0.046c0-4.532,3.416-8.244,8.312-8.244
				c3.006,0,4.806,1.003,6.286,2.46l-2.231,2.573c-1.23-1.116-2.483-1.799-4.077-1.799c-2.688,0-4.623,2.231-4.623,4.964v0.046
				c0,2.732,1.891,5.01,4.623,5.01c1.822,0,2.938-0.729,4.19-1.867l2.231,2.255C106.447,22.151,104.626,23.244,101.552,23.244z"/>
			<path d="M111.048,22.971V7.03h3.507v15.94H111.048z"/>
			<path d="M130.404,22.971l-1.457-3.575h-6.741l-1.457,3.575h-3.575l6.832-16.054h3.233l6.831,16.054H130.404z M125.577,11.129
				l-2.118,5.17h4.235L125.577,11.129z"/>
			<path d="M141.973,23.199c-2.413,0-4.851-0.843-6.763-2.551l2.072-2.482c1.435,1.185,2.938,1.936,4.759,1.936
				c1.436,0,2.301-0.569,2.301-1.503v-0.045c0-0.889-0.547-1.344-3.211-2.027c-3.211-0.819-5.284-1.708-5.284-4.873v-0.046
				c0-2.892,2.323-4.805,5.58-4.805c2.322,0,4.304,0.729,5.921,2.027l-1.822,2.641c-1.412-0.979-2.801-1.57-4.145-1.57
				s-2.05,0.614-2.05,1.389v0.045c0,1.048,0.684,1.39,3.439,2.096c3.233,0.843,5.055,2.004,5.055,4.781v0.047
				C147.825,21.423,145.412,23.199,141.973,23.199z"/>
		</g>
		<g>
			<g>
				<path style="fill:#559680;" d="M9.777,28.749v-2.718h9.736v2.389l-3.644,3.479c1.977,0.33,3.87,1.359,3.87,4.055
					c0,2.737-1.977,4.735-5.187,4.735c-2.595,0-4.386-1.029-5.62-2.491l2.183-2.078c0.987,1.11,2.016,1.728,3.478,1.728
					c1.194,0,2.038-0.679,2.038-1.769c0-1.194-1.009-1.854-2.82-1.854h-1.317L12,32.208l3.437-3.459H9.777z"/>
				<path style="fill:#559680;" d="M21.921,26.031h10.375v2.389L25.833,40.44H22.25l6.444-11.671h-6.772V26.031z"/>
				<path style="fill:#559680;" d="M39.171,40.688c-2.101,0-3.52-0.7-4.735-1.709l1.667-2.409c1.051,0.845,1.936,1.235,3.15,1.235
					c1.77,0,2.716-1.338,2.922-3.273c-0.7,0.599-1.667,0.988-2.922,0.988c-3.128,0-5.146-1.728-5.146-4.671
					c0-2.924,2.244-5.063,5.495-5.063c1.936,0,3.067,0.472,4.158,1.564c1.029,1.028,1.708,2.593,1.708,5.454
					C45.469,37.497,43.267,40.688,39.171,40.688z M39.705,28.502c-1.564,0-2.449,0.906-2.449,2.203s0.946,2.182,2.512,2.182
					c1.564,0,2.47-0.905,2.47-2.161C42.238,29.429,41.29,28.502,39.705,28.502z"/>
				<path style="fill:#559680;" d="M47.609,35.562v-3.004h6.339v3.004H47.609z"/>
				<path style="fill:#559680;" d="M66.196,25.93v8.83h1.936v2.572h-1.936v3.108h-3.024v-3.108h-7.041l-0.515-2.244l7.904-9.158
					H66.196z M63.172,30.272l-3.829,4.487h3.829V30.272z"/>
				<path style="fill:#559680;" d="M79.433,29.819c-0.947-0.721-1.709-1.152-2.944-1.152c-1.79,0-2.696,1.44-2.902,3.335
					c0.721-0.474,1.564-0.926,2.984-0.926c2.862,0,5.063,1.584,5.063,4.609c0,2.965-2.367,5.003-5.495,5.003
					c-1.873,0-3.149-0.536-4.158-1.545c-1.049-1.049-1.707-2.594-1.707-5.475c0-4.467,2.016-7.883,6.318-7.883
					c1.956,0,3.23,0.576,4.507,1.585L79.433,29.819z M75.974,33.71c-1.564,0-2.47,0.865-2.47,2.101c0,1.256,0.947,2.16,2.512,2.16
					c1.563,0,2.47-0.885,2.47-2.14C78.485,34.596,77.539,33.71,75.974,33.71z"/>
				<path style="fill:#559680;" d="M86.204,30.602l-2.223-1.789c1.42-1.936,2.799-2.985,5.371-2.985
					c3.067,0,4.961,1.771,4.961,4.466c0,2.408-1.234,3.623-3.787,5.6l-2.346,1.811h6.277v2.737H83.796v-2.512l4.795-3.93
					c1.791-1.482,2.491-2.265,2.491-3.459c0-1.215-0.803-1.873-1.936-1.873C88.035,28.667,87.275,29.284,86.204,30.602z"/>
				<path style="fill:#559680;" d="M103.102,40.688c-3.848,0-6.38-3.232-6.38-7.431c0-4.199,2.573-7.472,6.421-7.472
					c3.851,0,6.382,3.23,6.382,7.431C109.524,37.415,106.952,40.688,103.102,40.688z M103.102,28.646
					c-1.913,0-3.128,1.915-3.128,4.571c0,2.654,1.256,4.609,3.169,4.609c1.915,0,3.13-1.934,3.13-4.568
					S105.017,28.646,103.102,28.646z"/>
				<path style="fill:#559680;" d="M112.058,28.749v-2.718h9.734v2.389l-3.643,3.479c1.977,0.33,3.869,1.359,3.869,4.055
					c0,2.737-1.977,4.735-5.187,4.735c-2.594,0-4.384-1.029-5.619-2.491l2.183-2.078c0.986,1.11,2.017,1.728,3.478,1.728
					c1.194,0,2.038-0.679,2.038-1.769c0-1.194-1.009-1.854-2.82-1.854h-1.317l-0.494-2.017l3.438-3.459H112.058z"/>
				<path style="fill:#559680;" d="M126.63,30.602l-2.224-1.789c1.421-1.936,2.8-2.985,5.372-2.985c3.067,0,4.961,1.771,4.961,4.466
					c0,2.408-1.234,3.623-3.787,5.6l-2.348,1.811h6.279v2.737h-10.662v-2.512l4.795-3.93c1.791-1.482,2.491-2.265,2.491-3.459
					c0-1.215-0.803-1.873-1.934-1.873C128.462,28.667,127.7,29.284,126.63,30.602z"/>
				<path style="fill:#559680;" d="M137.661,28.749v-2.718h9.736v2.389l-3.643,3.479c1.976,0.33,3.869,1.359,3.869,4.055
					c0,2.737-1.975,4.735-5.187,4.735c-2.594,0-4.385-1.029-5.618-2.491L139,36.119c0.988,1.11,2.018,1.728,3.479,1.728
					c1.193,0,2.038-0.679,2.038-1.769c0-1.194-1.009-1.854-2.821-1.854h-1.317l-0.494-2.017l3.437-3.459H137.661z"/>
			</g>
		</g>
		<g>
			<path style="fill-rule:evenodd;clip-rule:evenodd;" d="M172.699,40.619c-0.393-0.027-0.787-0.049-1.18-0.084
				c-4.908-0.443-9.023-2.497-12.331-6.139c-2.25-2.478-3.698-5.379-4.379-8.658c-0.401-1.936-0.488-3.889-0.26-5.854
				c0.42-3.622,1.775-6.856,4.094-9.666c2.857-3.464,6.493-5.689,10.919-6.494c5.789-1.052,10.996,0.314,15.509,4.096
				c3.359,2.815,5.426,6.432,6.261,10.742c0.222,1.146,0.331,2.304,0.313,3.472c-0.018,1.162-0.863,2.071-2.052,2.22
				c-1.058,0.132-2.122-0.594-2.402-1.661c-0.068-0.263-0.08-0.545-0.088-0.819c-0.106-3.85-1.511-7.147-4.257-9.845
				c-2.207-2.169-4.867-3.463-7.939-3.872c-7.219-0.961-13.979,3.74-15.586,10.826c-1.588,7.01,2.393,14.11,9.208,16.426
				c1.467,0.499,2.977,0.735,4.526,0.747c1.097,0.008,1.988,0.756,2.213,1.828c0.268,1.282-0.642,2.541-1.948,2.697
				c-0.059,0.007-0.115,0.025-0.173,0.039C172.998,40.619,172.85,40.619,172.699,40.619z"/>
			<path style="fill-rule:evenodd;clip-rule:evenodd;" d="M198.316,34.662c-0.097,0.322-0.232,0.633-0.55,0.779
				c-0.216,0.1-0.468,0.123-0.704,0.171c-0.086,0.017-0.177,0.002-0.291,0.002c-0.005,0.094-0.013,0.173-0.013,0.251
				c-0.001,0.463,0.005,0.926-0.002,1.388c-0.013,0.803-0.613,1.422-1.384,1.439c-0.788,0.017-1.425-0.575-1.461-1.384
				c-0.021-0.477-0.006-0.955-0.008-1.433c0-0.079-0.007-0.159-0.012-0.262c-0.108,0-0.196,0-0.284,0c-1.529,0-3.06,0.001-4.589,0
				c-0.582-0.001-0.785-0.25-0.833-0.832c-0.066-0.781,0.165-1.43,0.589-2.087c1.373-2.13,2.695-4.293,4.028-6.448
				c0.194-0.313,0.437-0.459,0.805-0.452c0.769,0.014,1.538,0.004,2.306,0.004c0.618,0,0.857,0.235,0.857,0.848
				c0,2.134,0,4.268,0,6.401c0,0.095,0,0.189,0,0.317c0.774-0.083,1.331,0.159,1.545,0.939
				C198.316,34.425,198.316,34.543,198.316,34.662z M193.897,33.354c0.023-1.758,0.046-3.493,0.069-5.229
				c-0.016-0.012-0.032-0.022-0.048-0.034c-0.774,1.856-1.854,3.541-2.928,5.264C191.988,33.354,192.934,33.354,193.897,33.354z"/>
			<path style="fill-rule:evenodd;clip-rule:evenodd;" d="M181.858,36.215c0.093,0,0.171,0,0.248,0c1.104,0,2.209-0.003,3.313,0.003
				c0.641,0.003,1.138,0.394,1.254,0.969c0.162,0.795-0.411,1.499-1.235,1.502c-1.582,0.005-3.163,0.002-4.745,0.002
				c-0.791,0-1.581,0.001-2.372-0.001c-0.476-0.001-0.744-0.271-0.749-0.752c-0.002-0.179,0.016-0.358-0.002-0.536
				c-0.041-0.387,0.121-0.657,0.405-0.911c1.022-0.916,2.038-1.84,3.035-2.783c0.739-0.696,1.442-1.43,1.965-2.312
				c0.281-0.474,0.479-0.978,0.478-1.539c-0.001-1.002-0.613-1.687-1.607-1.826c-0.773-0.106-1.496,0.048-2.195,0.368
				c-0.746,0.341-1.47-0.025-1.639-0.825c-0.098-0.455,0.109-0.965,0.539-1.178c1.727-0.853,3.524-1.117,5.375-0.493
				c1.661,0.56,2.599,2.031,2.543,3.83c-0.038,1.242-0.559,2.286-1.3,3.241c-0.875,1.129-1.939,2.063-3.038,2.962
				c-0.08,0.066-0.159,0.135-0.238,0.204C181.882,36.147,181.88,36.166,181.858,36.215z"/>
			<path style="fill-rule:evenodd;clip-rule:evenodd;" d="M174.681,20.392c0.12,0,0.209,0,0.298,0c1.865,0,3.73-0.002,5.596,0.001
				c0.868,0.001,1.532,0.496,1.707,1.261c0.244,1.068-0.526,2.026-1.646,2.03c-2.179,0.006-4.357,0.004-6.536-0.002
				c-0.206-0.001-0.418-0.031-0.619-0.077c-1.205-0.278-2.075-1.353-2.078-2.586c-0.008-3.029-0.005-6.059-0.001-9.087
				c0.001-0.935,0.724-1.661,1.634-1.664c0.91-0.004,1.641,0.715,1.643,1.653c0.009,2.716,0.003,5.431,0.004,8.146
				C174.681,20.163,174.681,20.259,174.681,20.392z"/>
		</g>
	</g>
</g>
</svg>
