<?xml version="1.0" encoding="iso-8859-1"?>
<!-- Generator: Adobe Illustrator 16.0.0, SVG Export Plug-In . SVG Version: 6.00 Build 0)  -->
<!DOCTYPE svg PUBLIC "-//W3C//DTD SVG 1.1//EN" "http://www.w3.org/Graphics/SVG/1.1/DTD/svg11.dtd">
<svg version="1.1" xmlns="http://www.w3.org/2000/svg" xmlns:xlink="http://www.w3.org/1999/xlink" x="0px" y="0px" width="170px"
	 height="170px" viewBox="0 0 170 170" style="enable-background:new 0 0 170 170;" xml:space="preserve">
<g id="Capa_1">
</g>
<g id="Capa_9">
	<g>
		<g>
			<path style="fill:#F5F5F5;" d="M12.819,45.865c-0.075-0.004-0.133-0.005-0.172-0.009C12.687,45.856,12.744,45.86,12.819,45.865z"
				/>
		</g>
		<g>
			<path style="fill:#F5F5F5;" d="M157.034,45.853c-46.934,10.13-72.223,32.039-72.223,32.039S59.522,55.982,12.589,45.853
				c0,0,0.02,0,0.059,0.004s0.097,0.005,0.172,0.009c0.077,0.004,0.171,0.01,0.284,0.018c4.475,0.268,37.483,2.812,71.598,20.756
				c0.035-0.016,0.075-0.042,0.11-0.061c0.032,0.019,0.077,0.045,0.109,0.061c34.116-17.944,67.125-20.488,71.599-20.756
				C156.859,45.861,157.034,45.853,157.034,45.853z"/>
		</g>
		<g>
			<path style="fill:#F5F5F5;" d="M102.835,37.25c0.034-1.434,0.764-3.919-0.501-5.005c-1.705-1.467-3.81,2.622-4.733,3.623
				c-0.279,0.305-1.459,1.916-1.822,1.56c-0.875-0.856-1.732-1.748-2.521-2.673c-0.899-1.043-1.485-2.713-3.097-2.568
				c-1.078,0.093-0.95,0.779-1.621,1.323c-0.195,0.165-1.345-2.999-1.581-3.695c0.118-0.047,0.295-0.127,0.534-0.244
				c0.21-0.11,0.479-0.224,0.766-0.393c0.286-0.172,0.625-0.332,0.964-0.588c0.337-0.25,0.716-0.608,1.003-0.778
				c0.341-0.188,0.809-0.312,1.27-0.406c0.943-0.163,2-0.197,2.97,0.032c0.505,0.11,0.899,0.28,1.349,0.576
				c0.455,0.275,0.901,0.546,1.333,0.81c0.435,0.271,0.893,0.489,1.327,0.692c0.452,0.165,0.871,0.351,1.292,0.407
				c0.207,0.04,0.404,0.078,0.591,0.114c0.192,0.003,0.372,0.007,0.543,0.011c0.168,0.002,0.327,0.004,0.472,0.008
				c0.145-0.014,0.276-0.04,0.396-0.055c0.476-0.072,0.737-0.125,0.737-0.125s-0.275-0.023-0.742-0.04
				c-0.118-0.004-0.247-0.004-0.386-0.016c-0.138-0.026-0.286-0.055-0.445-0.087c-0.156-0.03-0.324-0.064-0.5-0.099
				c-0.169-0.057-0.348-0.117-0.533-0.18c-0.376-0.103-0.745-0.326-1.148-0.511c-0.389-0.228-0.793-0.472-1.205-0.754
				c-0.418-0.27-0.85-0.6-1.299-0.872c-0.429-0.304-1.031-0.59-1.585-0.707c-1.142-0.247-2.292-0.188-3.326,0.068
				c-0.519,0.133-1.002,0.301-1.452,0.601c-0.468,0.366-0.685,0.665-0.967,0.935c-0.282,0.268-0.586,0.485-0.832,0.699
				c-0.248,0.215-0.489,0.37-0.676,0.514c-0.207,0.156-0.359,0.27-0.462,0.346c-0.012-0.036-0.022-0.066-0.027-0.082
				c-0.372-1.239-0.364-3.563-2.12-3.563c-1.68,0-1.746,2.119-2.073,3.39c-0.04-0.03-0.074-0.056-0.12-0.09
				c-0.187-0.144-0.426-0.299-0.675-0.514c-0.244-0.214-0.549-0.432-0.83-0.699c-0.284-0.27-0.499-0.568-0.966-0.935
				c-0.451-0.3-0.935-0.468-1.455-0.601c-1.032-0.256-2.183-0.315-3.324-0.068c-0.554,0.117-1.156,0.403-1.586,0.707
				c-0.451,0.272-0.881,0.603-1.297,0.872c-0.414,0.282-0.819,0.526-1.207,0.754c-0.403,0.185-0.773,0.408-1.149,0.511
				c-0.185,0.063-0.363,0.123-0.532,0.18c-0.177,0.034-0.343,0.068-0.5,0.099c-0.159,0.032-0.309,0.061-0.445,0.087
				c-0.14,0.012-0.27,0.012-0.385,0.016c-0.468,0.017-0.744,0.04-0.744,0.04s0.264,0.053,0.739,0.125
				c0.119,0.015,0.252,0.041,0.396,0.055c0.146-0.004,0.304-0.006,0.471-0.008c0.172-0.004,0.352-0.008,0.544-0.011
				c0.187-0.036,0.384-0.074,0.59-0.114c0.423-0.057,0.841-0.242,1.294-0.407c0.434-0.203,0.892-0.421,1.327-0.692
				c0.433-0.264,0.878-0.534,1.332-0.81c0.447-0.296,0.845-0.466,1.349-0.576c0.97-0.229,2.024-0.195,2.968-0.032
				c0.464,0.095,0.932,0.218,1.273,0.406c0.286,0.17,0.665,0.528,1.002,0.778c0.336,0.256,0.677,0.416,0.965,0.588
				c0.286,0.169,0.554,0.282,0.765,0.393c0.062,0.03,0.11,0.053,0.166,0.08c-0.004,0.013-0.007,0.028-0.012,0.041
				c-0.076,0.271-1.408,3.996-1.621,3.818c-0.864-0.705-0.678-1.486-2.129-1.323c-1.356,0.151-2.469,2.459-3.342,3.418
				c-0.161,0.17-1.85,2.053-1.969,1.936c-0.968-0.952-1.9-1.927-2.765-2.963c-0.798-0.958-1.519-2.935-3.054-2.604
				c-1.232,0.271-1.206,1.748-1.146,2.705c0.16,2.485,0.203,4.99-0.043,7.468c-0.076,0.83-0.713,2.085,0.236,2.256
				c0.772,0.144,1.553,0.264,2.334,0.373c10.815,1.477,22.626,1.704,33.409-0.349c0.22-0.034,0.448-0.076,0.703-0.127
				C102.845,41.993,102.785,39.601,102.835,37.25z M102.471,43.333c-0.145,0.254-0.95,0.5-2.239,0.703
				c-3.003,0.493-8.696,0.823-15.221,0.823c-9.662,0-17.501-0.721-17.501-1.619s7.839-1.629,17.501-1.629
				c9.664,0,17.494,0.73,17.494,1.629C102.505,43.274,102.497,43.299,102.471,43.333z"/>
		</g>
		<g>
			<g>
				<path style="fill:#F5F5F5;" d="M13.541,100.324c-0.372,0.285-0.772,0.531-1.201,0.74c-0.43,0.206-0.898,0.365-1.41,0.472
					c-0.511,0.108-1.075,0.161-1.693,0.161c-0.972,0-1.867-0.177-2.688-0.529c-0.819-0.354-1.529-0.836-2.129-1.448
					c-0.599-0.612-1.068-1.334-1.408-2.167C2.671,96.721,2.5,95.826,2.5,94.867c0-0.946,0.167-1.835,0.502-2.669
					c0.334-0.833,0.804-1.561,1.409-2.187c0.605-0.623,1.325-1.116,2.157-1.475c0.832-0.36,1.753-0.54,2.763-0.54
					c0.605,0,1.157,0.051,1.656,0.151c0.497,0.103,0.955,0.243,1.371,0.427c0.416,0.182,0.801,0.4,1.154,0.652
					s0.688,0.53,1.003,0.832l-1.494,1.724c-0.53-0.493-1.093-0.89-1.685-1.192c-0.594-0.304-1.268-0.455-2.024-0.455
					c-0.632,0-1.215,0.123-1.751,0.369c-0.536,0.247-1,0.58-1.391,1.003c-0.392,0.423-0.694,0.918-0.909,1.486
					c-0.214,0.566-0.321,1.179-0.321,1.835s0.107,1.271,0.321,1.845c0.215,0.574,0.518,1.076,0.909,1.505
					c0.391,0.429,0.854,0.766,1.391,1.011c0.536,0.246,1.119,0.369,1.751,0.369c0.807,0,1.5-0.153,2.081-0.464
					c0.58-0.308,1.154-0.727,1.723-1.257l1.494,1.513C14.271,99.716,13.913,100.042,13.541,100.324z"/>
			</g>
			<g>
				<path style="fill:#F5F5F5;" d="M17.051,88.225h2.309v11.145h6.964v2.101h-9.272V88.225z"/>
			</g>
			<g>
				<path style="fill:#F5F5F5;" d="M31.204,88.225v13.245h-2.308V88.225H31.204z M29.123,87.127l2.006-3.104l2.081,0.928
					l-2.308,2.176H29.123z"/>
			</g>
			<g>
				<path style="fill:#F5F5F5;" d="M43.995,88.225h2.31v13.245h-1.946l-7.288-9.424v9.424h-2.309V88.225h2.152l7.081,9.158V88.225z"
					/>
			</g>
			<g>
				<path style="fill:#F5F5F5;" d="M52.151,88.225v13.245h-2.309V88.225H52.151z"/>
			</g>
			<g>
				<path style="fill:#F5F5F5;" d="M66.163,100.324c-0.372,0.285-0.772,0.531-1.202,0.74c-0.429,0.206-0.898,0.365-1.409,0.472
					c-0.512,0.108-1.076,0.161-1.694,0.161c-0.972,0-1.866-0.177-2.687-0.529c-0.819-0.354-1.529-0.836-2.128-1.448
					c-0.601-0.612-1.069-1.334-1.41-2.167c-0.341-0.832-0.512-1.727-0.512-2.686c0-0.946,0.167-1.835,0.503-2.669
					c0.333-0.833,0.804-1.561,1.409-2.187c0.605-0.623,1.324-1.116,2.157-1.475c0.832-0.36,1.753-0.54,2.762-0.54
					c0.605,0,1.157,0.051,1.656,0.151c0.497,0.103,0.955,0.243,1.371,0.427c0.417,0.182,0.802,0.4,1.154,0.652
					c0.354,0.252,0.688,0.53,1.003,0.832l-1.494,1.724c-0.53-0.493-1.091-0.89-1.685-1.192c-0.594-0.304-1.268-0.455-2.024-0.455
					c-0.631,0-1.215,0.123-1.75,0.369c-0.536,0.247-1,0.58-1.391,1.003c-0.392,0.423-0.694,0.918-0.909,1.486
					c-0.214,0.566-0.321,1.179-0.321,1.835s0.107,1.271,0.321,1.845c0.215,0.574,0.518,1.076,0.909,1.505
					c0.391,0.429,0.854,0.766,1.391,1.011c0.535,0.246,1.119,0.369,1.75,0.369c0.808,0,1.501-0.153,2.081-0.464
					c0.58-0.308,1.154-0.727,1.723-1.257l1.494,1.513C66.892,99.716,66.534,100.042,66.163,100.324z"/>
			</g>
			<g>
				<path style="fill:#F5F5F5;" d="M82.351,101.47h-2.459l-1.344-3.196h-6.263l-1.363,3.196h-2.384l5.828-13.34h2.157L82.351,101.47
					z M75.407,90.913l-2.271,5.298h4.561L75.407,90.913z"/>
			</g>
			<g>
				<path style="fill:#F5F5F5;" d="M101.765,97.449c-0.341,0.814-0.823,1.517-1.447,2.109c-0.625,0.594-1.369,1.06-2.232,1.401
					c-0.864,0.339-1.814,0.51-2.849,0.51h-4.938V88.225h4.938c1.034,0,1.984,0.167,2.849,0.502c0.863,0.334,1.607,0.799,2.232,1.39
					c0.624,0.594,1.106,1.295,1.447,2.101c0.34,0.808,0.511,1.678,0.511,2.612C102.275,95.762,102.104,96.636,101.765,97.449z
					 M99.502,93.053c-0.221-0.552-0.531-1.029-0.929-1.435c-0.398-0.406-0.883-0.723-1.451-0.95
					c-0.569-0.229-1.202-0.343-1.897-0.343h-2.618v9.044h2.618c0.695,0,1.328-0.109,1.897-0.332c0.568-0.222,1.053-0.53,1.451-0.931
					c0.397-0.397,0.708-0.874,0.929-1.425c0.222-0.552,0.333-1.157,0.333-1.814C99.835,94.207,99.724,93.603,99.502,93.053z"/>
			</g>
			<g>
				<path style="fill:#F5F5F5;" d="M114.896,90.325h-7.493v3.406h6.643v2.101h-6.643v3.537h7.588v2.101h-9.896V88.225h9.802V90.325z
					"/>
			</g>
			<g>
				<path style="fill:#F5F5F5;" d="M127.008,88.225h2.308v13.245h-1.945l-7.289-9.424v9.424h-2.309V88.225h2.153l7.082,9.158V88.225
					z"/>
			</g>
			<g>
				<path style="fill:#F5F5F5;" d="M138.322,101.47h-2.347V90.382h-4.2v-2.157h10.748v2.157h-4.201V101.47z"/>
			</g>
			<g>
				<path style="fill:#F5F5F5;" d="M155.957,101.47h-2.459l-1.344-3.196h-6.263l-1.362,3.196h-2.384l5.827-13.34h2.157
					L155.957,101.47z M149.014,90.913l-2.271,5.298h4.561L149.014,90.913z"/>
			</g>
			<g>
				<path style="fill:#F5F5F5;" d="M158.229,88.225h2.309v11.145h6.963v2.101h-9.271V88.225z"/>
			</g>
		</g>
		<g>
			<g>
				<path style="fill:#F5F5F5;" d="M45.935,125.021c-0.488,0.372-1.013,0.694-1.576,0.967c-0.562,0.273-1.178,0.479-1.848,0.62
					s-1.41,0.212-2.221,0.212c-1.273,0-2.448-0.232-3.522-0.695c-1.076-0.463-2.006-1.096-2.791-1.897s-1.401-1.75-1.849-2.842
					c-0.446-1.09-0.67-2.266-0.67-3.522c0-1.239,0.22-2.405,0.657-3.497c0.438-1.092,1.055-2.048,1.849-2.866
					c0.794-0.819,1.736-1.464,2.828-1.936c1.092-0.471,2.3-0.707,3.622-0.707c0.794,0,1.518,0.066,2.171,0.199
					c0.653,0.132,1.252,0.318,1.799,0.559c0.546,0.239,1.05,0.525,1.513,0.855c0.464,0.331,0.901,0.693,1.316,1.092l-1.961,2.258
					c-0.694-0.645-1.431-1.166-2.208-1.564c-0.777-0.396-1.662-0.595-2.654-0.595c-0.827,0-1.592,0.161-2.296,0.483
					c-0.703,0.324-1.311,0.762-1.823,1.315c-0.513,0.556-0.91,1.204-1.19,1.948c-0.281,0.743-0.422,1.545-0.422,2.406
					c0,0.86,0.141,1.666,0.422,2.419c0.28,0.752,0.678,1.41,1.19,1.972c0.513,0.563,1.12,1.004,1.823,1.326
					c0.704,0.324,1.469,0.485,2.296,0.485c1.058,0,1.968-0.202,2.729-0.608c0.76-0.405,1.513-0.955,2.258-1.649l1.96,1.985
					C46.89,124.224,46.422,124.648,45.935,125.021z"/>
			</g>
			<g>
				<path style="fill:#F5F5F5;" d="M63.389,111.909h-9.826v4.466h8.709v2.753h-8.709v4.641h9.949v2.755H50.536v-17.369h12.853
					V111.909z"/>
			</g>
			<g>
				<path style="fill:#F5F5F5;" d="M79.267,109.154h3.026v17.369h-2.551l-9.556-12.356v12.356h-3.027v-17.369h2.822l9.285,12.01
					V109.154z"/>
			</g>
			<g>
				<path style="fill:#F5F5F5;" d="M94.103,126.523h-3.077v-14.54h-5.508v-2.829H99.61v2.829h-5.508V126.523z"/>
			</g>
			<g>
				<path style="fill:#F5F5F5;" d="M113.975,126.523l-4.28-6.056h-3.832v6.056h-3.027v-17.369h7.74c0.993,0,1.89,0.129,2.692,0.386
					c0.802,0.258,1.48,0.619,2.035,1.092c0.554,0.472,0.979,1.05,1.277,1.736c0.298,0.686,0.445,1.452,0.445,2.296
					c0,0.728-0.103,1.376-0.31,1.946s-0.492,1.075-0.856,1.513c-0.363,0.44-0.798,0.812-1.302,1.117
					c-0.505,0.307-1.063,0.542-1.675,0.707l4.688,6.576H113.975z M112.979,112.645c-0.632-0.491-1.519-0.735-2.664-0.735h-4.453
					v5.855h4.479c1.095,0,1.966-0.267,2.613-0.798c0.646-0.53,0.97-1.245,0.97-2.142
					C113.925,113.861,113.609,113.134,112.979,112.645z"/>
			</g>
			<g>
				<path style="fill:#F5F5F5;" d="M137.493,121.287c-0.446,1.092-1.075,2.047-1.885,2.866c-0.811,0.819-1.77,1.468-2.878,1.947
					s-2.333,0.72-3.672,0.72c-1.341,0-2.564-0.236-3.672-0.707c-1.108-0.472-2.059-1.112-2.854-1.924
					c-0.794-0.81-1.414-1.761-1.86-2.854c-0.447-1.092-0.67-2.248-0.67-3.473c0-1.223,0.223-2.381,0.67-3.473
					c0.446-1.092,1.075-2.047,1.886-2.866c0.81-0.819,1.77-1.468,2.878-1.947c1.107-0.479,2.332-0.72,3.671-0.72
					c1.341,0,2.564,0.236,3.672,0.707c1.108,0.472,2.06,1.112,2.854,1.924c0.794,0.81,1.414,1.761,1.86,2.854
					c0.447,1.092,0.67,2.248,0.67,3.473S137.94,120.195,137.493,121.287z M134.529,115.47c-0.29-0.753-0.695-1.411-1.216-1.972
					c-0.521-0.563-1.146-1.009-1.873-1.341c-0.729-0.329-1.522-0.496-2.382-0.496c-0.86,0-1.65,0.161-2.37,0.483
					c-0.719,0.324-1.335,0.762-1.848,1.315c-0.513,0.556-0.914,1.207-1.203,1.96c-0.29,0.753-0.434,1.551-0.434,2.395
					s0.144,1.642,0.434,2.394c0.289,0.753,0.694,1.411,1.215,1.972c0.521,0.563,1.146,1.011,1.873,1.341
					c0.729,0.331,1.522,0.496,2.382,0.496c0.86,0,1.65-0.161,2.37-0.485c0.719-0.322,1.335-0.76,1.848-1.313
					c0.514-0.554,0.914-1.207,1.204-1.96c0.289-0.753,0.435-1.551,0.435-2.395S134.818,116.222,134.529,115.47z"/>
			</g>
		</g>
		<g>
			<g>
				<path style="fill:#F5F5F5;" d="M70.897,137.103c0.062,0.131,0.172,0.254,0.335,0.368c0.162,0.113,0.386,0.218,0.671,0.314
					s0.646,0.197,1.086,0.302c0.482,0.123,0.91,0.26,1.283,0.407c0.372,0.149,0.683,0.33,0.928,0.544
					c0.245,0.216,0.433,0.465,0.56,0.749s0.19,0.62,0.19,1.005c0,0.438-0.08,0.826-0.241,1.168c-0.16,0.341-0.384,0.631-0.67,0.866
					c-0.286,0.236-0.63,0.417-1.032,0.538c-0.402,0.123-0.844,0.184-1.325,0.184c-0.709,0-1.388-0.119-2.035-0.36
					c-0.647-0.24-1.246-0.61-1.798-1.108l0.972-1.156c0.446,0.385,0.896,0.681,1.352,0.887c0.455,0.205,0.972,0.308,1.549,0.308
					c0.5,0,0.895-0.104,1.188-0.315c0.293-0.21,0.44-0.494,0.44-0.853c0-0.167-0.029-0.314-0.086-0.445
					c-0.058-0.133-0.163-0.252-0.316-0.362s-0.364-0.212-0.631-0.309c-0.269-0.096-0.617-0.195-1.047-0.302
					c-0.492-0.114-0.928-0.241-1.309-0.381c-0.383-0.139-0.703-0.315-0.962-0.525c-0.259-0.209-0.455-0.463-0.592-0.76
					c-0.136-0.298-0.204-0.662-0.204-1.091c0-0.401,0.078-0.768,0.234-1.096c0.156-0.327,0.371-0.61,0.645-0.847
					c0.273-0.235,0.602-0.417,0.986-0.544c0.384-0.127,0.804-0.19,1.259-0.19c0.674,0,1.28,0.099,1.818,0.294
					c0.538,0.197,1.043,0.485,1.516,0.861l-0.865,1.221c-0.421-0.308-0.836-0.54-1.248-0.703c-0.411-0.161-0.827-0.243-1.247-0.243
					c-0.472,0-0.841,0.108-1.103,0.322c-0.263,0.214-0.394,0.474-0.394,0.781C70.805,136.814,70.836,136.972,70.897,137.103z"/>
				<path style="fill:#FFFFFF;" d="M72.682,143.872c-0.744,0-1.466-0.129-2.147-0.381c-0.683-0.254-1.323-0.648-1.902-1.174
					l-0.231-0.208l1.383-1.646l0.248,0.214c0.421,0.364,0.85,0.645,1.274,0.836c0.41,0.187,0.887,0.281,1.415,0.281
					c0.428,0,0.764-0.086,1-0.256c0.208-0.148,0.305-0.336,0.305-0.59c0-0.121-0.021-0.228-0.06-0.318
					c-0.032-0.074-0.102-0.152-0.206-0.226c-0.128-0.091-0.314-0.183-0.554-0.268c-0.256-0.093-0.597-0.189-1.014-0.292
					c-0.496-0.115-0.949-0.246-1.344-0.391c-0.413-0.151-0.767-0.347-1.053-0.578c-0.297-0.24-0.527-0.536-0.683-0.878
					c-0.155-0.339-0.233-0.75-0.233-1.225c0-0.449,0.089-0.864,0.266-1.235c0.175-0.366,0.419-0.687,0.725-0.952
					c0.306-0.264,0.675-0.468,1.097-0.606c0.416-0.137,0.873-0.206,1.36-0.206c0.708,0,1.357,0.105,1.929,0.314
					c0.568,0.208,1.108,0.514,1.607,0.91l0.239,0.191l-1.232,1.736l-0.265-0.191c-0.396-0.29-0.793-0.512-1.176-0.664
					c-0.371-0.146-0.752-0.22-1.129-0.22c-0.395,0-0.696,0.083-0.897,0.248c-0.188,0.154-0.275,0.322-0.275,0.531
					c0,0.135,0.021,0.248,0.063,0.335c0.036,0.078,0.113,0.16,0.227,0.239c0.137,0.097,0.335,0.188,0.59,0.273
					c0.272,0.093,0.628,0.191,1.058,0.293c0.499,0.128,0.944,0.27,1.328,0.423c0.405,0.161,0.748,0.364,1.02,0.602
					c0.28,0.244,0.496,0.532,0.644,0.86c0.145,0.324,0.219,0.707,0.219,1.136c0,0.483-0.092,0.923-0.272,1.306
					c-0.18,0.383-0.435,0.713-0.757,0.979c-0.317,0.262-0.702,0.464-1.145,0.597C73.67,143.806,73.191,143.872,72.682,143.872z
					 M69.303,142.041c0.453,0.37,0.942,0.652,1.457,0.844c0.608,0.226,1.256,0.339,1.922,0.339c0.446,0,0.861-0.057,1.23-0.168
					c0.359-0.11,0.669-0.271,0.92-0.479c0.249-0.204,0.445-0.458,0.584-0.754c0.14-0.298,0.211-0.645,0.211-1.031
					c0-0.338-0.055-0.632-0.163-0.872c-0.107-0.241-0.268-0.455-0.477-0.637c-0.218-0.19-0.498-0.353-0.835-0.487
					c-0.356-0.145-0.774-0.277-1.243-0.395c-0.45-0.108-0.815-0.211-1.109-0.309c-0.318-0.108-0.564-0.225-0.754-0.358
					c-0.207-0.145-0.356-0.312-0.441-0.493c-0.082-0.175-0.123-0.379-0.123-0.61c0-0.407,0.172-0.755,0.513-1.031
					c0.319-0.264,0.76-0.396,1.307-0.396c0.46,0,0.919,0.091,1.366,0.266c0.346,0.137,0.698,0.322,1.05,0.556l0.499-0.703
					c-0.374-0.264-0.771-0.475-1.182-0.624c-0.5-0.184-1.074-0.277-1.707-0.277c-0.419,0-0.808,0.06-1.157,0.175
					c-0.341,0.112-0.636,0.275-0.877,0.483c-0.237,0.205-0.427,0.453-0.563,0.739c-0.135,0.282-0.203,0.604-0.203,0.957
					c0,0.38,0.059,0.702,0.176,0.956c0.115,0.254,0.279,0.464,0.501,0.645c0.23,0.186,0.522,0.345,0.868,0.472
					c0.369,0.137,0.796,0.26,1.271,0.37c0.442,0.107,0.806,0.212,1.083,0.313c0.299,0.108,0.532,0.222,0.71,0.349
					c0.202,0.145,0.345,0.311,0.425,0.495c0.075,0.172,0.112,0.365,0.112,0.576c0,0.461-0.198,0.848-0.575,1.116
					c-0.348,0.249-0.811,0.376-1.376,0.376c-0.621,0-1.187-0.114-1.683-0.338c-0.395-0.178-0.788-0.423-1.176-0.728L69.303,142.041z
					"/>
			</g>
			<g>
				<path style="fill:#F5F5F5;" d="M77.564,143.417v-1.799h1.747v1.799H77.564z"/>
				<path style="fill:#FFFFFF;" d="M79.635,143.741h-2.394v-2.445h2.394V143.741z M77.889,143.093h1.099v-1.15h-1.099V143.093z"/>
			</g>
			<g>
				<path style="fill:#F5F5F5;" d="M87.278,143.417l-2.264-3.203h-2.028v3.203h-1.602v-9.188h4.096c0.525,0,1,0.068,1.425,0.203
					c0.424,0.137,0.783,0.328,1.075,0.578c0.294,0.248,0.519,0.556,0.678,0.918c0.157,0.363,0.235,0.768,0.235,1.215
					c0,0.385-0.055,0.728-0.164,1.029c-0.109,0.304-0.261,0.57-0.453,0.802s-0.423,0.429-0.688,0.59
					c-0.268,0.163-0.563,0.288-0.887,0.375l2.481,3.479H87.278z M86.753,136.073c-0.335-0.258-0.804-0.389-1.41-0.389h-2.356v3.098
					h2.37c0.579,0,1.041-0.141,1.383-0.421s0.514-0.659,0.514-1.134C87.253,136.718,87.085,136.333,86.753,136.073z"/>
				<path style="fill:#FFFFFF;" d="M89.811,143.741h-2.699l-2.265-3.203H83.31v3.203h-2.249v-9.837h4.42
					c0.557,0,1.069,0.074,1.523,0.221c0.463,0.147,0.863,0.361,1.187,0.639c0.33,0.28,0.587,0.627,0.764,1.035
					c0.175,0.401,0.263,0.854,0.263,1.344c0,0.421-0.062,0.804-0.183,1.14c-0.122,0.337-0.293,0.639-0.508,0.898
					c-0.216,0.258-0.476,0.481-0.771,0.659c-0.169,0.103-0.349,0.191-0.537,0.268L89.811,143.741z M87.446,143.093h1.108
					l-2.387-3.346l0.449-0.121c0.293-0.08,0.562-0.193,0.803-0.338c0.234-0.144,0.438-0.318,0.607-0.521
					c0.168-0.203,0.302-0.44,0.398-0.706c0.096-0.265,0.144-0.574,0.144-0.919c0-0.4-0.07-0.766-0.208-1.086
					c-0.138-0.315-0.336-0.586-0.59-0.8c-0.259-0.221-0.583-0.395-0.965-0.516c-0.391-0.126-0.836-0.188-1.326-0.188h-3.772v8.54
					h0.955v-3.201h2.518L87.446,143.093z M85.356,139.106h-2.693v-3.744h2.68c0.676,0,1.218,0.153,1.607,0.455
					c0.416,0.324,0.626,0.798,0.626,1.41c0,0.573-0.212,1.039-0.632,1.384C86.544,138.939,86.011,139.106,85.356,139.106z
					 M83.31,138.46h2.047c0.5,0,0.896-0.117,1.177-0.349c0.267-0.218,0.396-0.508,0.396-0.884c0-0.407-0.122-0.701-0.375-0.898
					c-0.274-0.212-0.682-0.32-1.211-0.32H83.31V138.46z"/>
			</g>
			<g>
				<path style="fill:#F5F5F5;" d="M90.587,143.417v-1.799h1.745v1.799H90.587z"/>
				<path style="fill:#FFFFFF;" d="M92.655,143.741h-2.392v-2.445h2.392V143.741z M90.91,143.093h1.1v-1.15h-1.1V143.093z"/>
			</g>
			<g>
				<path style="fill:#F5F5F5;" d="M94.406,134.229h1.602v7.731h4.831v1.457h-6.433V134.229z"/>
				<path style="fill:#FFFFFF;" d="M101.162,143.741h-7.079v-9.837h2.248v7.733h4.831V143.741z M94.729,143.093h5.786v-0.81h-4.832
					v-7.73h-0.954V143.093z"/>
			</g>
		</g>
	</g>
</g>
<g id="Modo_de_aislamiento">
</g>
</svg>
