<?xml version="1.0" encoding="iso-8859-1"?>
<!-- Generator: Adobe Illustrator 16.0.0, SVG Export Plug-In . SVG Version: 6.00 Build 0)  -->
<!DOCTYPE svg PUBLIC "-//W3C//DTD SVG 1.1//EN" "http://www.w3.org/Graphics/SVG/1.1/DTD/svg11.dtd">
<svg version="1.1" xmlns="http://www.w3.org/2000/svg" xmlns:xlink="http://www.w3.org/1999/xlink" x="0px" y="0px" width="204px"
	 height="44px" viewBox="0 0 204 44" style="enable-background:new 0 0 204 44;" xml:space="preserve">
<g id="Capa_1">
</g>
<g id="Capa_9">
</g>
<g id="Modo_de_aislamiento">
	<g>
		<g>
			<path style="fill:#FFFFFF;" d="M14.323,23.188c-4.28,0-6.899-2.392-6.899-7.082V6.996h3.507v9.018c0,2.597,1.299,3.94,3.439,3.94
				s3.438-1.299,3.438-3.826V6.996h3.506v8.995C21.314,20.819,18.604,23.188,14.323,23.188z"/>
			<path style="fill:#FFFFFF;" d="M34.568,22.937l-3.415-5.101h-2.756v5.101h-3.507V6.996h7.287c3.757,0,6.012,1.981,6.012,5.261
				v0.046c0,2.572-1.39,4.189-3.416,4.941l3.894,5.692H34.568z M34.637,12.438c0-1.502-1.047-2.276-2.755-2.276h-3.484v4.577h3.552
				c1.709,0,2.688-0.911,2.688-2.255V12.438z"/>
			<path style="fill:#FFFFFF;" d="M49.029,23.21c-4.964,0-8.38-3.484-8.38-8.197v-0.046c0-4.532,3.529-8.244,8.357-8.244
				c2.869,0,4.6,0.774,6.263,2.187l-2.21,2.664c-1.229-1.024-2.322-1.616-4.167-1.616c-2.551,0-4.577,2.254-4.577,4.964v0.046
				c0,2.914,2.004,5.055,4.828,5.055c1.275,0,2.414-0.318,3.302-0.956v-2.277h-3.529V13.76h6.923v6.923
				C54.199,22.071,51.944,23.21,49.029,23.21z"/>
			<path style="fill:#FFFFFF;" d="M59.209,22.937V6.996h12.023v3.12h-8.539v3.233h7.515v3.12h-7.515v3.348h8.653v3.119H59.209z"/>
			<path style="fill:#FFFFFF;" d="M85.648,22.937l-7.721-10.134v10.134h-3.461V6.996H77.7l7.47,9.815V6.996h3.462v15.94H85.648z"/>
			<path style="fill:#FFFFFF;" d="M99.927,23.21c-4.691,0-8.176-3.62-8.176-8.197v-0.046c0-4.532,3.416-8.244,8.312-8.244
				c3.006,0,4.806,1.003,6.286,2.46l-2.231,2.573c-1.23-1.116-2.483-1.799-4.077-1.799c-2.688,0-4.623,2.231-4.623,4.964v0.046
				c0,2.732,1.891,5.01,4.623,5.01c1.822,0,2.938-0.729,4.19-1.867l2.231,2.255C104.822,22.117,103.001,23.21,99.927,23.21z"/>
			<path style="fill:#FFFFFF;" d="M109.423,22.937V6.996h3.507v15.94H109.423z"/>
			<path style="fill:#FFFFFF;" d="M128.779,22.937l-1.457-3.575h-6.741l-1.457,3.575h-3.575l6.832-16.054h3.233l6.831,16.054
				H128.779z M123.952,11.095l-2.118,5.17h4.235L123.952,11.095z"/>
			<path style="fill:#FFFFFF;" d="M140.348,23.165c-2.413,0-4.851-0.843-6.763-2.551l2.072-2.482
				c1.435,1.185,2.938,1.936,4.759,1.936c1.436,0,2.301-0.569,2.301-1.503V18.52c0-0.889-0.547-1.344-3.211-2.027
				c-3.211-0.819-5.284-1.708-5.284-4.873v-0.046c0-2.892,2.323-4.805,5.58-4.805c2.322,0,4.304,0.729,5.921,2.027l-1.822,2.641
				c-1.412-0.979-2.801-1.57-4.145-1.57s-2.05,0.614-2.05,1.389V11.3c0,1.048,0.684,1.39,3.439,2.096
				c3.233,0.843,5.055,2.004,5.055,4.781v0.047C146.2,21.389,143.787,23.165,140.348,23.165z"/>
		</g>
		<g>
			<g>
				<path style="fill:#FFFFFF;" d="M8.152,28.715v-2.718h9.736v2.389l-3.644,3.479c1.977,0.33,3.87,1.359,3.87,4.055
					c0,2.737-1.977,4.735-5.188,4.735c-2.594,0-4.385-1.029-5.619-2.491l2.183-2.078c0.987,1.11,2.017,1.728,3.478,1.728
					c1.195,0,2.038-0.679,2.038-1.769c0-1.194-1.009-1.854-2.819-1.854h-1.318l-0.494-2.017l3.438-3.459H8.152z"/>
				<path style="fill:#FFFFFF;" d="M20.297,25.997h10.375v2.389l-6.464,12.021h-3.583l6.443-11.671h-6.771V25.997z"/>
				<path style="fill:#FFFFFF;" d="M37.547,40.654c-2.102,0-3.521-0.7-4.735-1.709l1.667-2.409c1.051,0.845,1.936,1.235,3.15,1.235
					c1.77,0,2.716-1.338,2.922-3.273c-0.7,0.599-1.666,0.988-2.922,0.988c-3.129,0-5.146-1.728-5.146-4.671
					c0-2.924,2.244-5.063,5.495-5.063c1.936,0,3.067,0.472,4.158,1.564c1.028,1.028,1.708,2.593,1.708,5.454
					C43.844,37.463,41.642,40.654,37.547,40.654z M38.08,28.468c-1.564,0-2.449,0.906-2.449,2.203s0.946,2.182,2.512,2.182
					c1.564,0,2.471-0.905,2.471-2.161C40.613,29.395,39.665,28.468,38.08,28.468z"/>
				<path style="fill:#FFFFFF;" d="M45.984,35.527v-3.004h6.339v3.004H45.984z"/>
				<path style="fill:#FFFFFF;" d="M64.571,25.896v8.83h1.936v2.572h-1.936v3.108h-3.024v-3.108h-7.041l-0.515-2.244l7.904-9.158
					H64.571z M61.547,30.238l-3.829,4.487h3.829V30.238z"/>
				<path style="fill:#FFFFFF;" d="M77.808,29.785c-0.947-0.721-1.709-1.152-2.944-1.152c-1.79,0-2.696,1.44-2.902,3.335
					c0.721-0.474,1.564-0.926,2.984-0.926c2.862,0,5.063,1.584,5.063,4.609c0,2.965-2.367,5.003-5.495,5.003
					c-1.873,0-3.149-0.536-4.158-1.545c-1.049-1.049-1.707-2.594-1.707-5.475c0-4.467,2.016-7.883,6.318-7.883
					c1.956,0,3.23,0.576,4.507,1.585L77.808,29.785z M74.349,33.676c-1.564,0-2.47,0.865-2.47,2.101c0,1.256,0.947,2.16,2.512,2.16
					c1.563,0,2.47-0.885,2.47-2.14C76.86,34.562,75.914,33.676,74.349,33.676z"/>
				<path style="fill:#FFFFFF;" d="M84.579,30.567l-2.223-1.789c1.42-1.936,2.799-2.985,5.371-2.985
					c3.067,0,4.961,1.771,4.961,4.466c0,2.408-1.234,3.623-3.787,5.6l-2.346,1.811h6.277v2.737H82.171v-2.512l4.795-3.93
					c1.791-1.482,2.491-2.265,2.491-3.459c0-1.215-0.803-1.873-1.936-1.873C86.41,28.633,85.65,29.25,84.579,30.567z"/>
				<path style="fill:#FFFFFF;" d="M101.477,40.654c-3.848,0-6.38-3.232-6.38-7.431c0-4.199,2.573-7.472,6.421-7.472
					c3.851,0,6.382,3.23,6.382,7.431C107.899,37.381,105.327,40.654,101.477,40.654z M101.477,28.611
					c-1.913,0-3.128,1.915-3.128,4.571c0,2.654,1.256,4.609,3.169,4.609c1.915,0,3.13-1.934,3.13-4.568
					S103.392,28.611,101.477,28.611z"/>
				<path style="fill:#FFFFFF;" d="M110.433,28.715v-2.718h9.734v2.389l-3.643,3.479c1.977,0.33,3.869,1.359,3.869,4.055
					c0,2.737-1.977,4.735-5.187,4.735c-2.594,0-4.384-1.029-5.619-2.491l2.183-2.078c0.986,1.11,2.017,1.728,3.478,1.728
					c1.194,0,2.038-0.679,2.038-1.769c0-1.194-1.009-1.854-2.82-1.854h-1.317l-0.494-2.017l3.438-3.459H110.433z"/>
				<path style="fill:#FFFFFF;" d="M125.005,30.567l-2.224-1.789c1.421-1.936,2.8-2.985,5.372-2.985
					c3.067,0,4.961,1.771,4.961,4.466c0,2.408-1.234,3.623-3.787,5.6l-2.348,1.811h6.279v2.737h-10.662v-2.512l4.795-3.93
					c1.791-1.482,2.491-2.265,2.491-3.459c0-1.215-0.803-1.873-1.934-1.873C126.837,28.633,126.075,29.25,125.005,30.567z"/>
				<path style="fill:#FFFFFF;" d="M136.036,28.715v-2.718h9.736v2.389l-3.643,3.479c1.976,0.33,3.869,1.359,3.869,4.055
					c0,2.737-1.975,4.735-5.187,4.735c-2.594,0-4.385-1.029-5.618-2.491l2.181-2.078c0.988,1.11,2.018,1.728,3.479,1.728
					c1.193,0,2.038-0.679,2.038-1.769c0-1.194-1.009-1.854-2.821-1.854h-1.317l-0.494-2.017l3.437-3.459H136.036z"/>
			</g>
		</g>
		<g>
			<path style="fill-rule:evenodd;clip-rule:evenodd;fill:#FFFFFF;" d="M171.074,40.585c-0.393-0.027-0.787-0.049-1.18-0.084
				c-4.908-0.443-9.023-2.497-12.331-6.139c-2.25-2.478-3.698-5.379-4.379-8.658c-0.401-1.936-0.488-3.889-0.26-5.854
				c0.42-3.622,1.775-6.856,4.094-9.666c2.857-3.464,6.493-5.689,10.919-6.494c5.789-1.052,10.996,0.314,15.509,4.096
				c3.359,2.815,5.426,6.432,6.261,10.742c0.222,1.146,0.331,2.304,0.313,3.472c-0.018,1.162-0.863,2.071-2.052,2.22
				c-1.058,0.132-2.122-0.594-2.402-1.661c-0.068-0.263-0.08-0.545-0.088-0.819c-0.106-3.85-1.511-7.147-4.257-9.845
				c-2.207-2.169-4.867-3.463-7.939-3.872c-7.219-0.961-13.979,3.74-15.586,10.826c-1.588,7.01,2.393,14.11,9.208,16.426
				c1.467,0.499,2.977,0.735,4.526,0.747c1.097,0.008,1.988,0.756,2.213,1.828c0.268,1.282-0.642,2.541-1.948,2.697
				c-0.059,0.007-0.115,0.025-0.173,0.039C171.373,40.585,171.225,40.585,171.074,40.585z"/>
			<path style="fill-rule:evenodd;clip-rule:evenodd;fill:#FFFFFF;" d="M196.691,34.628c-0.097,0.322-0.232,0.633-0.55,0.779
				c-0.216,0.1-0.468,0.123-0.704,0.171c-0.086,0.017-0.177,0.002-0.291,0.002c-0.005,0.094-0.013,0.173-0.013,0.251
				c-0.001,0.463,0.005,0.926-0.002,1.388c-0.013,0.803-0.613,1.422-1.384,1.439c-0.788,0.017-1.425-0.575-1.461-1.384
				c-0.021-0.477-0.006-0.955-0.008-1.433c0-0.079-0.007-0.159-0.012-0.262c-0.108,0-0.196,0-0.284,0c-1.529,0-3.06,0.001-4.589,0
				c-0.582-0.001-0.785-0.25-0.833-0.832c-0.066-0.781,0.165-1.43,0.589-2.087c1.373-2.13,2.695-4.293,4.028-6.448
				c0.194-0.313,0.437-0.459,0.805-0.452c0.769,0.014,1.538,0.004,2.306,0.004c0.618,0,0.857,0.235,0.857,0.848
				c0,2.134,0,4.268,0,6.401c0,0.095,0,0.189,0,0.317c0.774-0.083,1.331,0.159,1.545,0.939
				C196.691,34.391,196.691,34.509,196.691,34.628z M192.272,33.32c0.023-1.758,0.046-3.493,0.069-5.229
				c-0.016-0.012-0.032-0.022-0.048-0.034c-0.774,1.856-1.854,3.541-2.928,5.264C190.363,33.32,191.309,33.32,192.272,33.32z"/>
			<path style="fill-rule:evenodd;clip-rule:evenodd;fill:#FFFFFF;" d="M180.233,36.181c0.093,0,0.171,0,0.248,0
				c1.104,0,2.209-0.003,3.313,0.003c0.641,0.003,1.138,0.394,1.254,0.969c0.162,0.795-0.411,1.499-1.235,1.502
				c-1.582,0.005-3.163,0.002-4.745,0.002c-0.791,0-1.581,0.001-2.372-0.001c-0.476-0.001-0.744-0.271-0.749-0.752
				c-0.002-0.179,0.016-0.358-0.002-0.536c-0.041-0.387,0.121-0.657,0.405-0.911c1.022-0.916,2.038-1.84,3.035-2.783
				c0.739-0.696,1.442-1.43,1.965-2.312c0.281-0.474,0.479-0.978,0.478-1.539c-0.001-1.002-0.613-1.687-1.607-1.826
				c-0.773-0.106-1.496,0.048-2.195,0.368c-0.746,0.341-1.47-0.025-1.639-0.825c-0.098-0.455,0.109-0.965,0.539-1.178
				c1.727-0.853,3.524-1.117,5.375-0.493c1.661,0.56,2.599,2.031,2.543,3.83c-0.038,1.242-0.559,2.286-1.3,3.241
				c-0.875,1.129-1.939,2.063-3.038,2.962c-0.08,0.066-0.159,0.135-0.238,0.204C180.257,36.113,180.255,36.132,180.233,36.181z"/>
			<path style="fill-rule:evenodd;clip-rule:evenodd;fill:#FFFFFF;" d="M173.056,20.357c0.12,0,0.209,0,0.298,0
				c1.865,0,3.73-0.002,5.596,0.001c0.868,0.001,1.532,0.496,1.707,1.261c0.244,1.068-0.526,2.026-1.646,2.03
				c-2.179,0.006-4.357,0.004-6.536-0.002c-0.206-0.001-0.418-0.031-0.619-0.077c-1.205-0.278-2.075-1.353-2.078-2.586
				c-0.008-3.029-0.005-6.059-0.001-9.087c0.001-0.935,0.724-1.661,1.634-1.664c0.91-0.004,1.641,0.715,1.643,1.653
				c0.009,2.716,0.003,5.431,0.004,8.146C173.056,20.129,173.056,20.225,173.056,20.357z"/>
		</g>
	</g>
</g>
</svg>
