<?xml version="1.0" encoding="iso-8859-1"?>
<!-- Generator: Adobe Illustrator 16.0.0, SVG Export Plug-In . SVG Version: 6.00 Build 0)  -->
<!DOCTYPE svg PUBLIC "-//W3C//DTD SVG 1.1//EN" "http://www.w3.org/Graphics/SVG/1.1/DTD/svg11.dtd">
<svg version="1.1" xmlns="http://www.w3.org/2000/svg" xmlns:xlink="http://www.w3.org/1999/xlink" x="0px" y="0px" width="134px"
	 height="4px" viewBox="0 0 134 4" style="enable-background:new 0 0 134 4;" xml:space="preserve">
<g id="Capa_1">
	<path style="fill:#73C7A6;" d="M0,2c0,0,2.049-0.057,5.635-0.157c3.586-0.072,8.709-0.175,14.857-0.298
		c6.147-0.073,13.319-0.157,21.004-0.248c7.685-0.034,15.881-0.071,24.078-0.108c8.197,0.036,16.394,0.073,24.078,0.107
		c7.685,0.09,14.856,0.174,21.004,0.248c6.147,0.124,11.271,0.227,14.857,0.299C129.1,1.943,131.148,2,131.148,2
		s-2.049,0.057-5.635,0.158c-3.587,0.072-8.71,0.175-14.857,0.299c-6.147,0.073-13.319,0.157-21.004,0.248
		c-7.685,0.034-15.881,0.071-24.078,0.107c-8.197-0.037-16.394-0.074-24.078-0.108C33.812,2.612,26.64,2.528,20.492,2.456
		C14.344,2.333,9.221,2.229,5.635,2.157C2.049,2.057,0,2,0,2z"/>
</g>
<g id="Capa_9">
</g>
<g id="Modo_de_aislamiento">
</g>
</svg>
